<svg xmlns="http://www.w3.org/2000/svg" width="1024" height="1024" viewBox="0 0 1024 1024" version="1.1">
	<path d="M 537.430 106.984 C 513.211 110.398, 491.761 124.441, 477.072 146.500 C 472.198 153.819, 464 170.703, 464 173.421 C 464 174.516, 464.940 175, 467.068 175 C 472.132 175, 523.213 182.448, 556.796 188.084 C 565.678 189.574, 567.055 188.779, 564.070 183.884 C 560.064 177.311, 562.159 167.839, 569.522 159.243 C 578.433 148.838, 591.857 146.021, 601.462 152.539 C 604.826 154.821, 605.303 154.901, 607.285 153.513 C 608.473 152.681, 610.245 152, 611.223 152 C 613.810 152, 613.431 149.807, 609.493 141.987 C 602.588 128.274, 586.362 114.854, 570 109.321 C 562.486 106.780, 546.840 105.657, 537.430 106.984 M 610.007 154.593 C 602.717 157.754, 598 164.799, 598 172.526 C 598 177.684, 599.035 180.193, 602.872 184.339 C 606.689 188.463, 610.481 190.124, 616.333 190.234 C 623.132 190.363, 629.896 187.314, 633.608 182.447 C 636.175 179.082, 636.500 177.850, 636.500 171.500 C 636.500 165.154, 636.174 163.917, 633.616 160.563 C 628.416 153.746, 618.022 151.117, 610.007 154.593 M 454.064 187.752 C 449.756 189.944, 448.170 194.129, 448.098 203.500 C 448.028 212.541, 450.540 218.507, 455.218 220.411 C 457.023 221.146, 469.300 223.152, 482.500 224.869 C 495.700 226.586, 514.600 229.131, 524.500 230.526 C 552.555 234.477, 555.848 234.628, 560.633 232.187 C 576.797 223.941, 575.341 207.153, 558.012 201.962 C 547.906 198.936, 469.762 185.998, 461.604 186.002 C 459.347 186.002, 455.954 186.790, 454.064 187.752 M 653 238.944 C 634.189 242.935, 620.256 250.620, 607.834 263.858 C 594.217 278.369, 588 293.288, 588 311.450 C 588 322.426, 589.792 330.052, 594.656 339.770 C 602.179 354.801, 618.711 370.194, 640.736 382.676 C 646.656 386.031, 664.550 395.417, 680.500 403.535 C 713.680 420.420, 723.439 426.466, 731.405 435.070 C 741.860 446.363, 746.226 456.757, 746.288 470.500 C 746.360 486.354, 741.303 498.623, 729.906 510.243 C 721.431 518.884, 713.202 523.420, 699.198 527.169 C 687.453 530.314, 665.620 530.297, 653.587 527.133 C 626.796 520.088, 609.048 504.186, 607.344 485.700 C 606.544 477.021, 608.277 471.460, 613.368 466.368 C 626.094 453.643, 647.533 462.576, 645.483 479.750 C 644.680 486.474, 646.235 486.608, 650.905 480.216 C 656.289 472.845, 658.416 467.257, 658.411 460.500 C 658.404 452.471, 655.059 446.156, 646.645 438.285 C 637.814 430.024, 631.671 427.645, 618.948 427.562 C 609.799 427.503, 609.061 427.665, 601.448 431.417 C 576.959 443.486, 568.150 469.962, 580.622 494.013 C 589.565 511.260, 609.463 525.929, 634 533.363 C 657.021 540.338, 689.021 541.005, 712.505 534.999 C 745.347 526.599, 772.733 504.517, 782.813 478.309 C 787.167 466.986, 788.334 459.668, 787.762 447.257 C 787.196 434.965, 784.898 427.494, 778.231 416.272 C 771.473 404.896, 756.975 389.997, 743.682 380.767 C 727.065 369.229, 717.645 363.637, 693.500 350.982 C 648.815 327.561, 637.699 319.543, 630.218 305.332 C 626.059 297.433, 624.952 291.441, 626.109 283.087 C 628.008 269.379, 636.615 257.883, 649.490 251.858 C 669.087 242.687, 702.337 244.658, 724.500 256.304 C 728.279 258.290, 733.831 262.796, 739.500 268.479 C 749.754 278.757, 755.227 288.263, 759.374 303 C 761.330 309.949, 762.153 311.558, 763.883 311.820 L 766 312.139 766 279.236 C 766 261.140, 765.736 246.069, 765.413 245.746 C 765.090 245.424, 762.532 245.841, 759.727 246.674 C 753.751 248.449, 747.751 247.784, 726.144 242.955 C 705.262 238.288, 694.505 236.993, 677.257 237.070 C 666.116 237.120, 659.010 237.669, 653 238.944 M 193 270.500 C 193 302.501, 193.031 303, 195.031 303 C 196.149 303, 197.212 302.438, 197.395 301.750 C 202.313 283.271, 208.105 271.793, 216.955 262.987 C 229.031 250.970, 237.982 248.046, 262.779 248.017 L 278.058 248 277.779 377.250 L 277.500 506.500 275.344 512.784 C 272.806 520.184, 266.559 528.873, 261.555 531.966 C 259.600 533.174, 258 534.576, 258 535.082 C 258 535.626, 276.201 536, 302.670 536 L 347.341 536 341.228 530.468 C 334.362 524.255, 330.799 517.824, 329.093 508.566 C 328.339 504.473, 328 463.150, 328 375.316 L 328 248 339.168 248 C 361.609 248, 371.629 251.568, 384.019 263.972 C 391.943 271.905, 397.371 280.964, 402.012 294 C 404.631 301.357, 405.655 303, 407.622 303 C 408.764 303, 409 297.438, 409 270.500 L 409 238 301 238 L 193 238 193 270.500 M 454.071 242.750 C 450.035 250.985, 441.104 277.791, 439.444 286.649 C 437.983 294.442, 438.014 297.767, 439.622 306.198 C 439.905 307.682, 441.389 310.472, 442.920 312.399 L 445.703 315.901 448.986 312.514 C 452.024 309.380, 452.147 309.004, 450.636 307.493 C 448.368 305.225, 447.490 301.514, 447.561 294.500 C 447.629 287.804, 450.053 281.266, 456.089 271.500 L 459.797 265.500 458.720 251.750 C 458.127 244.188, 457.363 238, 457.020 238 C 456.678 238, 455.351 240.137, 454.071 242.750 M 463 315.961 C 455.650 317.392, 449.383 322.443, 446.553 329.218 C 444.821 333.365, 444.411 346, 446.009 346 C 446.563 346, 448.822 344.693, 451.027 343.095 C 459.415 337.019, 468.840 336.744, 483.289 342.153 C 494.819 346.469, 500.754 347.974, 506.290 347.988 C 513.859 348.007, 523.118 342.444, 526.595 335.789 C 528.014 333.072, 528.809 325.475, 527.781 324.448 C 527.481 324.147, 525.561 325.036, 523.517 326.424 C 515.371 331.952, 505.684 330.911, 488.183 322.626 C 474.185 316, 469.361 314.723, 463 315.961 M 527.488 352.019 C 526.305 353.933, 517.028 358.022, 510.259 359.613 C 501.693 361.627, 494.411 360.998, 482 357.173 C 469.442 353.303, 465.028 352.646, 460.243 353.935 C 444.230 358.246, 443.095 373.546, 455.592 416.634 C 464.197 446.301, 465.414 457.409, 462.421 478.940 C 458.848 504.638, 454.702 514.523, 442.349 526.792 C 437.757 531.353, 434 535.291, 434 535.542 C 434 535.794, 461 536, 494 536 C 527.810 536, 554 535.616, 554 535.121 C 554 534.638, 552.638 533.679, 550.974 532.989 C 546.483 531.129, 539.403 522.692, 537.321 516.720 C 534.991 510.033, 535.009 500.179, 537.414 467.500 C 539.955 432.977, 538.743 408.641, 532.488 368.555 C 531.120 359.786, 530 352.248, 530 351.805 C 530 350.658, 528.237 350.808, 527.488 352.019 M 68.417 603.917 C 67.577 604.756, 68.059 623.546, 68.958 624.966 C 69.694 626.130, 70.108 625.820, 70.963 623.466 C 74.199 614.564, 77.013 612.969, 90.800 612.225 L 100.100 611.722 99.800 654.807 L 99.500 697.891 96.054 701.446 L 92.608 705 107.304 705 C 121.579 705, 124.395 704.352, 120.105 702.056 C 116.329 700.036, 116 696.115, 116 653.201 L 116 611.700 127.042 612.283 C 140.196 612.977, 143.348 614.398, 147 621.282 C 148.375 623.874, 149.838 625.996, 150.250 625.997 C 150.662 625.999, 151 620.938, 151 614.750 L 151 603.500 109.917 603.500 C 87.321 603.500, 68.646 603.688, 68.417 603.917 M 169 604.128 C 169 604.473, 169.705 605.340, 170.566 606.055 C 174.882 609.636, 175 610.930, 175 654.516 C 175 682.651, 174.646 696.839, 173.906 698.316 C 173.304 699.517, 171.616 701.510, 170.156 702.745 L 167.500 704.990 183 704.959 L 198.500 704.928 195.813 702.714 C 191.533 699.187, 191 696.222, 191 675.935 L 191 657 215 657 L 239 657 239 677.465 L 239 697.930 235.896 701.465 L 232.793 705 248.146 704.964 L 263.500 704.928 260.878 702.714 C 259.436 701.496, 257.749 699.517, 257.128 698.316 C 256.344 696.797, 256 683.458, 256 654.516 C 256 609.927, 256.139 608.602, 261.096 605.949 C 262.237 605.338, 262.906 604.573, 262.582 604.248 C 262.160 603.827, 240.134 603.628, 233.173 603.983 C 232.993 603.992, 234.231 605.385, 235.923 607.077 L 239 610.154 239 629.077 L 239 648 215 648 L 191 648 191.006 631.750 C 191.012 614.449, 191.814 609.383, 195.006 606.495 C 196.103 605.502, 197 604.422, 197 604.095 C 197 603.768, 190.700 603.500, 183 603.500 C 175.300 603.500, 169 603.782, 169 604.128 M 288.263 604.382 C 287.964 604.867, 288.457 605.676, 289.360 606.181 C 293.806 608.670, 294 610.665, 294 653.885 C 294 696.301, 293.816 698.420, 289.746 702.764 L 287.625 705.028 319.912 704.764 L 352.200 704.500 356.100 694.113 C 359.859 684.102, 360.646 681, 359.426 681 C 359.111 681, 356.635 683.241, 353.924 685.981 C 345.426 694.569, 338.042 697, 320.451 697 L 310 697 310 675.918 L 310 654.837 322.584 655.168 L 335.169 655.500 338.084 658.766 C 339.688 660.562, 341 662.699, 341 663.516 C 341 664.332, 341.450 665, 342 665 C 342.622 665, 342.980 659.618, 342.948 650.750 C 342.897 637.045, 342.830 636.594, 341.198 638.946 C 336.456 645.777, 337.257 645.473, 323.091 645.829 L 310 646.159 310 628.966 L 310 611.773 323.750 612.166 C 340.649 612.649, 344.176 613.984, 347.755 621.250 C 349.041 623.862, 350.527 626, 351.057 626 C 351.636 626, 351.897 621.608, 351.710 615.012 L 351.400 604.025 320.104 603.762 C 302.793 603.617, 288.564 603.894, 288.263 604.382 M 417.999 603.868 C 418 604.070, 419.350 605.774, 421 607.653 L 424 611.070 423.996 653.785 C 423.993 694.604, 423.905 696.644, 422.011 699.750 C 420.921 701.538, 419.573 703, 419.015 703 C 418.457 703, 418 703.450, 418 704 C 418 704.621, 423.574 705, 432.723 705 L 447.446 705 444.290 702.118 C 442.470 700.455, 440.872 697.811, 440.514 695.868 C 440.172 694.016, 440.029 674.187, 440.196 651.804 L 440.500 611.109 443.946 607.554 L 447.392 604 443.946 603.976 C 442.051 603.963, 435.437 603.850, 429.249 603.726 C 423.061 603.602, 417.999 603.666, 417.999 603.868 M 471 604.348 C 471 604.992, 471.933 606.102, 473.074 606.814 C 477.731 609.722, 478 612.330, 478 654.500 C 478 697.594, 477.871 698.697, 472.373 702.795 L 469.500 704.937 482 704.941 L 494.500 704.946 491 702.046 L 487.500 699.145 487.215 661.448 L 486.930 623.750 501.247 642.125 C 509.121 652.231, 521.821 668.600, 529.469 678.500 C 550.567 705.812, 549.859 705, 552.567 705 L 555 705 555.006 660.750 C 555.009 634.546, 555.416 615.042, 556.004 612.926 C 556.550 610.960, 558.123 608.294, 559.498 607.001 C 560.874 605.709, 562 604.392, 561.999 604.076 C 561.999 603.626, 544.959 603.506, 539.368 603.917 C 538.745 603.963, 539.982 605.747, 542.118 607.882 L 546 611.765 546 642.549 C 546 659.480, 545.807 673.140, 545.571 672.904 C 544.988 672.321, 515.421 634.734, 502.201 617.769 L 491.500 604.037 483 603.942 C 478.325 603.890, 473.712 603.696, 472.750 603.512 C 471.788 603.328, 471 603.704, 471 604.348 M 585.547 603.783 C 585.393 603.939, 586.782 605.582, 588.633 607.433 L 592 610.800 592 654.294 L 592 697.788 589 701 C 587.350 702.766, 586 704.389, 586 704.606 C 586 704.823, 595.019 705, 606.042 705 C 620.398 705, 628.271 704.551, 633.792 703.419 C 652.727 699.535, 665.891 688.554, 672.155 671.419 C 675.412 662.511, 675.369 643.892, 672.073 635.500 C 666.337 620.897, 655.415 610.678, 640.500 605.958 C 637.054 604.867, 586.456 602.865, 585.547 603.783 M 865.759 603.784 L 858.017 604.084 861.359 607.426 C 863.503 609.570, 864.929 612.152, 865.339 614.634 C 866.176 619.701, 866.190 687.337, 865.355 693.429 C 864.905 696.712, 863.846 699.001, 861.855 700.991 C 860.285 702.562, 859 704.106, 859 704.423 C 859 704.740, 863.950 705, 870 705 C 876.890 705, 881 704.615, 881 703.969 C 881 703.401, 880.308 702.672, 879.463 702.347 C 875.324 700.759, 875 697.719, 875 660.450 L 875 624.802 884.750 637.691 C 890.112 644.780, 903.942 662.824, 915.483 677.790 C 935.362 703.568, 936.638 705, 939.733 705 L 943 705 943 659.468 C 943 610.739, 943.203 608.567, 948.001 605.999 C 949.195 605.361, 949.891 604.557, 949.548 604.214 C 948.833 603.499, 927.888 602.951, 926.807 603.619 C 926.415 603.861, 927.761 605.586, 929.797 607.452 L 933.500 610.844 933.791 643.106 L 934.081 675.369 917.791 654.839 C 908.831 643.548, 897.487 629.177, 892.583 622.905 C 877.863 604.077, 877.300 603.442, 875.364 603.464 C 874.339 603.475, 870.016 603.619, 865.759 603.784 M 700.459 607.397 L 704.061 610.794 703.780 654.984 L 703.500 699.175 700.750 701.539 C 699.237 702.840, 698 704.151, 698 704.452 C 698 704.753, 704.525 705, 712.500 705 C 720.475 705, 727 704.746, 727 704.435 C 727 704.125, 725.650 702.735, 724 701.347 L 721 698.822 721 654.946 L 721 611.070 724.104 607.535 L 727.207 604 712.032 604 L 696.858 604 700.459 607.397 M 790.721 605.250 C 790.450 605.938, 786.188 616.625, 781.250 629 C 776.312 641.375, 768.349 661.496, 763.555 673.714 C 756.192 692.476, 754.229 696.536, 750.919 699.846 C 748.763 702.001, 747 704.043, 747 704.382 C 747 704.722, 752.259 705, 758.687 705 L 770.374 705 767.687 702.195 C 764.279 698.638, 764.317 697.112, 768.083 686.328 C 769.778 681.473, 771.405 676.712, 771.699 675.750 C 772.182 674.169, 773.951 674, 790.023 674 L 807.813 674 810.806 681.250 C 815.285 692.099, 817.103 698.012, 816.365 699.324 C 816 699.971, 814.791 701.513, 813.677 702.750 L 811.651 705 826.326 705 C 834.397 705, 841 704.761, 841 704.469 C 841 704.178, 839.443 702.572, 837.540 700.901 C 835.638 699.231, 832.982 695.532, 831.639 692.682 C 829.773 688.720, 802.991 622.967, 796.639 606.750 C 795.503 603.852, 791.657 602.876, 790.721 605.250 M 609 654.500 L 609 697 616.818 697 C 630.569 697, 640.820 692.271, 648.245 682.500 C 654.274 674.567, 656.328 666.298, 655.819 652.018 C 655.419 640.792, 655.209 639.806, 651.690 632.686 C 647.007 623.212, 639.241 615.743, 631.762 613.522 C 628.866 612.662, 622.802 612, 617.818 612 L 609 612 609 654.500 M 782.866 646.759 L 776.231 664.500 789.753 664.779 C 797.190 664.933, 803.417 664.916, 803.591 664.742 C 803.765 664.569, 801.016 657.018, 797.482 647.963 C 793.949 638.908, 791.045 630.938, 791.029 630.250 C 790.942 626.531, 788.840 630.782, 782.866 646.759 M 304.326 748.984 C 287.990 752.450, 278.314 768.827, 283.541 784.166 C 286.083 791.626, 289.916 794.886, 316.779 812.436 C 322.024 815.863, 324.638 818.331, 326.139 821.272 C 330.233 829.297, 326.612 838.589, 317.711 842.898 C 305.997 848.568, 289.699 841.617, 283.884 828.470 C 282.796 826.011, 281.477 824, 280.953 824 C 280.394 824, 280 829.792, 280 838 C 280 852.307, 280.215 853.026, 283.905 851.051 C 285.077 850.423, 287.679 850.568, 291.589 851.477 C 314.205 856.737, 330.094 851.902, 338.788 837.113 C 341.127 833.135, 341.500 831.399, 341.500 824.500 C 341.500 817.500, 341.129 815.830, 338.532 811.141 C 334.935 804.648, 331.013 801.197, 319.048 794 C 301.392 783.380, 296.007 778.005, 296.007 771 C 296.007 760.810, 307.258 755.214, 320.292 758.920 C 325.971 760.536, 331.491 765.630, 334.218 771.774 C 335.261 774.124, 336.539 775.785, 337.057 775.465 C 338.307 774.693, 338.297 749, 337.047 749 C 336.523 749, 334.975 749.510, 333.606 750.134 C 331.765 750.972, 329.967 750.977, 326.694 750.153 C 320.291 748.541, 309.158 747.959, 304.326 748.984 M 616.750 749.761 L 575 750.022 575 761.011 C 575 767.055, 575.337 771.999, 575.750 771.997 C 576.163 771.996, 577.625 769.858, 579 767.247 C 582.554 760.499, 586.045 759.003, 598.250 759.002 L 608 759 608 800.435 C 608 827.267, 607.625 842.862, 606.937 844.685 C 606.352 846.233, 604.665 848.496, 603.187 849.714 L 600.500 851.928 615.250 851.964 C 623.362 851.984, 630 851.753, 630 851.452 C 630 851.151, 628.763 849.840, 627.250 848.539 L 624.500 846.175 624.219 802.587 L 623.939 759 634.258 759 C 647.505 759, 652.031 760.985, 655.915 768.500 L 658.500 773.500 658.798 767.250 C 658.961 763.813, 658.961 758.413, 658.798 755.250 L 658.500 749.500 616.750 749.761 M 400.450 752.192 C 400.053 753.461, 396.373 763.050, 392.272 773.500 C 388.172 783.950, 381.034 802.175, 376.410 814 C 365.761 841.230, 363.779 845.365, 360.040 848.128 C 358.368 849.365, 357 850.741, 357 851.188 C 357 851.635, 362.175 852, 368.500 852 C 374.825 852, 380 851.727, 380 851.394 C 380 851.061, 378.875 849.903, 377.500 848.821 C 376.125 847.740, 375 845.841, 375 844.603 C 375 842.319, 378.458 831.619, 381.423 824.727 L 383.046 820.954 400.622 821.227 L 418.198 821.500 421.723 830.500 C 426.321 842.239, 426.810 845.957, 424.083 848.425 C 422.937 849.462, 422 850.690, 422 851.155 C 422 851.620, 428.525 852, 436.500 852 C 444.475 852, 451 851.647, 451 851.216 C 451 850.784, 449.624 849.619, 447.943 848.626 C 443.967 846.277, 443.683 845.656, 423.077 794.304 C 408.013 756.762, 405.191 750.456, 403.336 750.192 C 401.801 749.973, 400.962 750.555, 400.450 752.192 M 467 750.382 C 467 750.593, 468.800 752.565, 471 754.765 L 475 758.765 474.996 801.132 C 474.993 841.605, 474.904 843.645, 473.011 846.750 C 471.921 848.538, 470.573 850, 470.015 850 C 469.457 850, 469 850.450, 469 851 C 469 851.607, 473.369 852, 480.106 852 L 491.212 852 488.183 849.171 C 486.463 847.564, 484.889 844.864, 484.539 842.921 C 484.200 841.039, 484.053 824.054, 484.212 805.176 L 484.500 770.853 514 808.571 C 530.225 829.315, 544.332 847.574, 545.348 849.144 C 546.861 851.482, 547.905 852, 551.098 852 L 555 852 555 804.449 L 555 756.898 558.750 753.454 L 562.500 750.010 550.250 750.005 C 537.688 750, 535.960 750.617, 540.399 753.526 C 544.790 756.403, 545.048 758.641, 544.766 791.336 L 544.500 822.173 532 806.195 C 525.125 797.408, 512.317 781.169, 503.537 770.109 L 487.574 750 477.287 750 C 471.629 750, 467 750.172, 467 750.382 M 705.077 752.250 C 704.597 753.487, 698.599 768.675, 691.750 786 C 684.900 803.325, 677.124 823.125, 674.468 830 C 670.582 840.064, 668.799 843.354, 665.321 846.882 C 662.944 849.291, 661 851.429, 661 851.632 C 661 851.834, 666.496 852, 673.212 852 L 685.424 852 681.973 849.119 C 678.559 846.269, 678.534 846.190, 679.694 841.869 C 680.339 839.466, 682.290 833.777, 684.029 829.227 L 687.192 820.955 704.820 821.227 L 722.448 821.500 726.148 831 C 731.607 845.017, 731.669 845.476, 728.507 848.406 C 727.028 849.776, 726.040 851.258, 726.312 851.699 C 726.583 852.139, 733.195 852.363, 741.006 852.196 L 755.208 851.892 751.229 847.992 C 747.643 844.476, 745.399 839.459, 728.444 797.046 C 713.155 758.799, 709.293 750, 707.794 750 C 706.780 750, 705.557 751.013, 705.077 752.250 M 399.539 777.681 C 399.139 778.681, 396.196 786.250, 393 794.500 C 389.804 802.750, 386.873 810.288, 386.488 811.250 C 385.839 812.867, 386.857 813, 399.893 813 C 407.652 813, 414 812.607, 414 812.127 C 414 811.646, 410.910 803.290, 407.133 793.558 C 402.213 780.877, 400.061 776.378, 399.539 777.681 M 697.407 794.278 L 690.425 812.500 704.351 812.778 C 712.010 812.931, 718.433 812.900, 718.624 812.709 C 718.904 812.429, 705.275 777.062, 704.585 776.278 C 704.478 776.156, 701.248 784.256, 697.407 794.278" stroke="none" fill="#000000" fill-rule="evenodd"/>
</svg>